<?xml version="1.0" encoding="UTF-8"?>
<svg width="40px" height="40px" viewBox="0 0 40 40" version="1.1" xmlns="http://www.w3.org/2000/svg" xmlns:xlink="http://www.w3.org/1999/xlink">
    <!-- Generator: Sketch 48.2 (47327) - http://www.bohemiancoding.com/sketch -->
    <title>Group</title>
    <desc>Created with Sketch.</desc>
    <defs></defs>
    <g id="1.3_自选－编辑1-copy" stroke="none" stroke-width="1" fill="none" fill-rule="evenodd" transform="translate(-24.000000, -310.000000)">
        <g id="Group" transform="translate(24.000000, 310.000000)">
            <circle id="Oval-5-Copy" fill="#326DAF" cx="20" cy="20" r="20"></circle>
            <g id="Page-1" transform="translate(8.000000, 12.000000)" fill="#FFFFFF">
                <path d="M23.4989093,3.21607544 L23.4989093,3.21607544 L10.3550157,16.0570967 C10.0454631,16.3595163 9.61660376,16.5485286 9.14260134,16.5485286 C8.67021117,16.5485286 8.24054572,16.3595163 7.93099312,16.0570967 L0.501730721,8.79981297 C0.192178122,8.49581824 0.000320000001,8.07684103 0.000320000001,7.61454852 C0.000320000001,6.68917594 0.767752487,5.94021481 1.71333894,5.94021481 C2.18734136,5.94021481 2.61620069,6.12686443 2.92655942,6.43007162 L9.14260134,12.503666 L21.0740806,0.846334083 C21.3844393,0.543914448 21.8132986,0.358052381 22.2864949,0.358052381 C23.2328875,0.358052381 24.00032,1.10622596 24.00032,2.03159854 C24.00032,2.4946786 23.809268,2.91286826 23.4989093,3.21607544" id="Fill-1"></path>
            </g>
        </g>
    </g>
</svg>