<?xml version="1.0" encoding="UTF-8"?>
<svg width="40px" height="40px" viewBox="0 0 40 40" version="1.1" xmlns="http://www.w3.org/2000/svg" xmlns:xlink="http://www.w3.org/1999/xlink">
    <!-- Generator: Sketch 48.2 (47327) - http://www.bohemiancoding.com/sketch -->
    <title>分享</title>
    <desc>Created with Sketch.</desc>
    <defs></defs>
    <g id="1.1_自选－我的自选-无自选" stroke="none" stroke-width="1" fill="none" fill-rule="evenodd" transform="translate(-675.000000, -64.000000)">
        <g id="分享" transform="translate(675.000000, 64.000000)" fill="#FFFFFF" fill-rule="nonzero">
            <path d="M38.6440279,20.2894865 C37.8947198,20.2894865 37.2894403,20.8914079 37.2894403,21.6344118 L37.2894403,34.3508173 C37.2894403,35.9828708 35.9493893,37.3101494 34.3050833,37.3101494 L5.69417831,37.3101494 C4.05024153,37.3101494 2.71092896,35.9828708 2.71092896,34.3508173 L2.71092896,7.64918276 C2.71092896,6.01749687 4.05024153,4.68920734 5.69417831,4.68920734 L15.0200341,4.68920734 C15.7679577,4.68920734 16.3752678,4.08756165 16.3752678,3.34428201 C16.3752678,2.60201336 15.7679115,2.00000004 15.0200341,2.00000004 L5.69417831,2 C2.55444043,2 0,4.53332719 0,7.64918271 L0,34.3508173 C0,37.4655239 2.55444043,40 5.69417831,40 L34.3050834,40 C37.4459288,40 40,37.4655699 40,34.3508173 L40,21.6344118 C40,20.8914079 39.393013,20.2894865 38.6440279,20.2894865 Z M10.0224506,28.3952352 C9.88711439,29.1332094 10.377598,29.842351 11.1177513,29.9780966 C11.2003253,29.994187 11.2825749,30 11.3640363,30 C12.0092362,30 12.5830821,29.5416552 12.7023765,28.8850168 C12.7136893,28.8270261 13.7936898,23.1023667 17.5553779,17.4116553 C19.744171,14.0995375 22.3967421,11.4658222 25.4387699,9.58407872 C28.3431897,7.78725181 31.6253362,6.66901329 35.2294798,6.24164026 L30.7946342,10.8140666 C30.2716959,11.3534216 30.2851877,12.2159339 30.8248171,12.7385939 C31.0893695,12.9944597 31.4310714,13.1228576 31.7734224,13.1228576 C32.127828,13.1228576 32.4837636,12.9841823 32.7504951,12.7093428 L39.6164778,5.63029682 C39.6219024,5.6255999 39.625936,5.62006593 39.6309897,5.61495046 C39.6383152,5.60695173 39.6447598,5.60002265 39.6520853,5.59193089 C39.6601526,5.58393217 39.6665972,5.57593348 39.6750354,5.56644662 C39.6750354,5.56570254 39.6761018,5.56351687 39.6775854,5.56351687 C39.6849109,5.5550531 39.6913555,5.54668236 39.6972437,5.53831162 C39.7041056,5.52984786 39.7129147,5.52036103 39.7190811,5.51199029 C39.7255721,5.50250347 39.7324803,5.49413269 39.739064,5.48566897 C39.7459722,5.47474049 39.7529268,5.4645096 39.7620141,5.45399963 C39.765306,5.44665199 39.7707306,5.44009487 39.7750424,5.43316578 C39.7805597,5.42591112 39.7838515,5.41935405 39.7889052,5.41126234 C39.7914552,5.40907666 39.7929389,5.40656542 39.7947007,5.40437974 C39.7954425,5.40251959 39.7965552,5.3995898 39.7972507,5.39782267 C39.8020262,5.39010297 39.805318,5.38391791 39.8111135,5.37736083 C39.8172799,5.36429317 39.8238636,5.35406228 39.8314672,5.34090159 C39.83513,5.33434452 39.8387927,5.32671785 39.8424091,5.32011424 C39.8434755,5.3175565 39.8449591,5.31458026 39.8464428,5.31239454 C39.8514964,5.30216365 39.8565965,5.29197924 39.8617429,5.28249238 C39.8650347,5.27440067 39.8700884,5.26602993 39.8726384,5.25728713 C39.8788048,5.24631217 39.8842757,5.2357557 39.8886803,5.22296708 C39.8930849,5.21348025 39.896284,5.20473745 39.9003176,5.19525063 C39.9047222,5.18357809 39.9101468,5.17334719 39.9126968,5.16311625 C39.9174723,5.1525133 39.9210423,5.1423289 39.925076,5.13098187 C39.9291097,5.12149505 39.9316133,5.1113106 39.9345342,5.10182378 C39.9396806,5.09047676 39.9418597,5.07917627 39.9454761,5.06713171 C39.949417,5.05690082 39.9505297,5.04778601 39.9527088,5.03829914 C39.9574843,5.02699865 39.9596171,5.01383796 39.9621671,5.00146784 C39.9643925,4.9941202 39.9665716,4.98691204 39.9687044,4.97919234 C39.9687044,4.97626259 39.9687044,4.97449542 39.9698171,4.97263527 C39.9723671,4.96133478 39.9744998,4.94933671 39.9770499,4.93617602 C39.9781626,4.92999096 39.9796462,4.92375941 39.9803417,4.91645826 C39.9810835,4.91176134 39.9818254,4.90627386 39.9825672,4.90073988 C39.9835872,4.89199709 39.9854881,4.88144067 39.9879918,4.87265138 C39.9887336,4.86646632 39.989429,4.85958372 39.989429,4.85442176 C39.9909127,4.84456288 39.9916545,4.83656415 39.9927209,4.8278214 C39.9942045,4.82163634 39.9945754,4.81833458 39.9945754,4.81252153 C39.9945754,4.80810364 39.9953172,4.80377873 39.9953172,4.79824476 C39.9953172,4.79568702 39.9967545,4.79317582 39.9978673,4.79024603 C39.9978673,4.77820147 39.9986091,4.76759852 39.9986091,4.7551819 C39.9986091,4.7537403 39.9986091,4.75150809 39.9992582,4.74974091 C39.9992582,4.74239328 39.9992582,4.73583615 39.9992582,4.72820949 L39.9992582,4.72746541 C40,4.71174704 40,4.69826083 40,4.68440256 L40,4.68328648 L40,4.68184487 C40,4.65919736 39.9992582,4.63766594 39.9992582,4.6157625 C39.9986091,4.61390234 39.9986091,4.61134461 39.9986091,4.6103215 L39.9986091,4.59823041 L39.9986091,4.59716082 C39.9978673,4.58032631 39.9953172,4.56614257 39.9945754,4.55042415 C39.9934627,4.54637827 39.9927209,4.54056526 39.9927209,4.53614738 C39.9927209,4.53321763 39.9927209,4.53145045 39.9916545,4.52963679 C39.989429,4.51573203 39.9887336,4.50154829 39.986879,4.48727152 C39.9854417,4.48108645 39.984329,4.47522696 39.9835872,4.46866988 C39.9829381,4.46685622 39.9825671,4.46285688 39.9825671,4.46132225 C39.9803417,4.45002176 39.9789044,4.43876772 39.9770499,4.42560708 C39.9744998,4.41788738 39.9731089,4.41067926 39.9716253,4.40333158 C39.9716253,4.40151791 39.9716253,4.40002977 39.9708834,4.39863466 C39.9698171,4.3967745 39.9698171,4.39496084 39.9698171,4.39272863 C39.9672671,4.38361382 39.9657834,4.37487102 39.9621207,4.36575621 C39.9595706,4.35194448 39.9559543,4.33729569 39.951596,4.32306541 C39.9504833,4.31725241 39.9493706,4.31246246 39.9475624,4.3058589 C39.9425087,4.29014052 39.9377332,4.27446859 39.9322623,4.2573551 C39.9315204,4.25405329 39.9304077,4.25154209 39.9297123,4.24786827 C39.9256786,4.23656778 39.9209031,4.22522076 39.9173331,4.21243213 C39.9173331,4.21243213 39.9154785,4.21099053 39.9154785,4.20847928 C39.9147367,4.20480546 39.9111667,4.19899246 39.910054,4.1953186 C39.910054,4.19238885 39.9093121,4.19164478 39.9075039,4.18797096 C39.9023575,4.17667047 39.8994366,4.1646724 39.892992,4.15290683 C39.8903957,4.14639625 39.8871038,4.13835103 39.8841829,4.13249154 C39.8841829,4.13137545 39.8827456,4.13067787 39.8827456,4.13067787 C39.8779701,4.11826126 39.8725456,4.10547263 39.8670747,4.09347456 L39.8663328,4.09347456 C39.8535828,4.06678117 39.8412036,4.04120391 39.8245126,4.01460355 C39.8143126,3.99637393 39.8029998,3.97842334 39.793217,3.95949614 C39.7921043,3.95838006 39.7902961,3.95619434 39.7888124,3.9547062 C39.7830169,3.94410324 39.7756914,3.93354683 39.7684587,3.92443202 L39.7666041,3.92150227 C39.7640541,3.91634031 39.7619214,3.91127138 39.7575168,3.90685349 C39.7538541,3.90141249 39.7501913,3.89629702 39.7458795,3.89085608 C39.7425876,3.88718226 39.7404549,3.88313638 39.737163,3.87950906 C39.7342421,3.87481213 39.7323875,3.87151033 39.7283539,3.8674645 C39.725433,3.86379068 39.7233003,3.86053536 39.7203793,3.85579195 C39.7134711,3.84667714 39.7058674,3.83756233 39.6985419,3.82733144 C39.6945082,3.82365762 39.6905673,3.8189607 39.6861627,3.81379874 C39.6847255,3.81198507 39.6832418,3.80798573 39.6799963,3.80654408 C39.670909,3.79449952 39.6618217,3.78426858 39.6519925,3.77366568 C39.6487007,3.77073593 39.6469389,3.76822469 39.6447134,3.76529494 C39.6316852,3.75101817 39.6167096,3.73720644 39.6054432,3.72330172 C39.6025223,3.72227862 39.6017805,3.72111605 39.6003896,3.71972089 C39.5861558,3.70544411 39.5704849,3.6905163 39.5563439,3.67623953 C39.555602,3.67558848 39.555602,3.67558848 39.5545357,3.67521643 C39.5384937,3.66131167 39.5235182,3.64824401 39.5071981,3.63508337 C39.5071981,3.6343393 39.5053436,3.63252563 39.5046481,3.63252563 C39.4886062,3.62010902 39.4729816,3.60694837 39.4573105,3.59560135 C39.4547605,3.59415974 39.4532769,3.5926716 39.4504023,3.59053242 C39.4365395,3.58067354 39.4220276,3.57044264 39.4070984,3.55951417 C39.4030647,3.55658442 39.3991238,3.55370116 39.3939774,3.55077137 C39.3867446,3.54598142 39.3802073,3.54128455 39.3717691,3.5364946 C39.3663445,3.53216974 39.3608736,3.529612 39.3543363,3.52556612 C39.347799,3.52189231 39.3408444,3.51719538 39.334678,3.5127775 C39.3296243,3.50947569 39.3230406,3.50584836 39.3165033,3.50217454 C39.3107079,3.49784968 39.3041242,3.49566396 39.296845,3.49199014 C39.2903541,3.48794426 39.2819622,3.48315436 39.2736167,3.47957352 C39.2623503,3.47338846 39.2517794,3.4682265 39.240142,3.46199495 C39.2314256,3.45618194 39.2222456,3.45325215 39.2125092,3.44920632 C39.20268,3.44413739 39.1906718,3.43864986 39.1804717,3.4342785 C39.1706425,3.42995364 39.160118,3.42627978 39.1502888,3.42148988 C39.1404597,3.41781606 39.1295178,3.41423522 39.119735,3.40944532 C39.1084222,3.4057715 39.0975267,3.40181865 39.0855184,3.3970287 C39.0763384,3.39409895 39.067622,3.39084364 39.0577928,3.38791389 C39.0527392,3.38610023 39.0465264,3.38498414 39.0407309,3.38210089 L29.0421718,0.069796998 C28.3271478,-0.167746138 27.5553744,0.220935441 27.3199849,0.933704366 C27.0830654,1.64647329 27.4705748,2.4173724 28.1837442,2.65421796 L32.2064148,3.98637549 C29.2499284,4.62510985 26.5067158,5.72111936 24.0050128,7.26933514 C20.6242504,9.36062626 17.6896014,12.2676465 15.2811362,15.9108271 C11.2166918,22.0603485 10.0701127,28.1386254 10.0224506,28.3952352 Z" id="Shape"></path>
        </g>
    </g>
</svg>