<?xml version="1.0" encoding="UTF-8"?>
<svg width="28px" height="35px" viewBox="0 0 28 35" version="1.1" xmlns="http://www.w3.org/2000/svg" xmlns:xlink="http://www.w3.org/1999/xlink">
    <!-- Generator: Sketch 48.2 (47327) - http://www.bohemiancoding.com/sketch -->
    <title>Page 1 Copy</title>
    <desc>Created with Sketch.</desc>
    <defs></defs>
    <g id="1.3_自选－编辑1-copy" stroke="none" stroke-width="1" fill="none" fill-rule="evenodd" transform="translate(-406.000000, -313.000000)">
        <g id="Page-1-Copy" transform="translate(406.000000, 312.000000)" fill="#326DAF">
            <g id="top">
                <path d="M13.7960204,35.4686176 C13.248551,35.4686176 12.7010816,34.9271471 12.7010816,34.3877353 L12.7010816,4.57391176 L1.86202041,15.4033235 C1.42487755,15.8356765 0.767081633,15.8356765 0.327857143,15.4033235 C-0.109285714,14.9689118 -0.109285714,14.3183235 0.327857143,13.8859706 L13.0299796,1.32508824 C13.4671224,0.890676471 14.1249184,0.890676471 14.4517347,1.32508824 L27.1538571,13.8859706 C27.5930816,14.3183235 27.5930816,14.9689118 27.1538571,15.4033235 C26.7167143,15.8356765 26.0589184,15.8356765 25.6217755,15.4033235 L14.7806327,4.57391176 L14.7806327,34.3877353 C14.7806327,34.9271471 14.2352449,35.4686176 13.7960204,35.4686176" id="Fill-1"></path>
            </g>
        </g>
    </g>
</svg>