<?xml version="1.0" encoding="UTF-8"?>
<svg width="32px" height="30px" viewBox="0 0 32 30" version="1.1" xmlns="http://www.w3.org/2000/svg" xmlns:xlink="http://www.w3.org/1999/xlink">
    <!-- Generator: Sketch 48.2 (47327) - http://www.bohemiancoding.com/sketch -->
    <title>Group 3</title>
    <desc>Created with Sketch.</desc>
    <defs></defs>
    <g id="1.1_自选－我的自选-无自选" stroke="none" stroke-width="1" fill="none" fill-rule="evenodd" transform="translate(-47.000000, -144.000000)">
        <g id="Group-3" transform="translate(48.000000, 145.000000)" fill="#E8E8E8" stroke="#E8E8E8">
            <path d="M12.3746979,24.7506775 C5.55121619,24.7506775 0,19.1985793 0,12.3749555 C0,5.55133179 5.55121619,0 12.3746979,0 C19.1981795,0 24.7501622,5.55133179 24.7501622,12.3749555 C24.7501622,19.1985793 19.1981795,24.7506775 12.3746979,24.7506775 M12.3746979,1.07608309 C6.14442913,1.07608309 1.07606068,6.14455708 1.07606068,12.3749555 C1.07606068,18.6061205 6.14442913,23.673828 12.3746979,23.673828 C18.605733,23.673828 23.6741015,18.6061205 23.6741015,12.3749555 C23.6741015,6.14455708 18.605733,1.07608309 12.3746979,1.07608309" id="Fill-1"></path>
            <path d="M21,20.9827366 L21.8300517,20 L30.1818182,27.0856133 C30.1818182,27.0856133 29.3517664,28.0683498 29.3517664,28.0683498 L21,20.9827366 Z" id="Fill-2"></path>
        </g>
    </g>
</svg>